<?xml version="1.0" encoding="UTF-8"?>
<svg version="1.1" xmlns="http://www.w3.org/2000/svg" width="1132" height="1132">
<path d="M0 0 C1.01081353 -0.00145344 2.02162706 -0.00290688 3.06307131 -0.00440437 C6.47170673 -0.00807216 9.88029766 -0.00457425 13.2889328 -0.0011425 C15.74903718 -0.00229403 18.20914139 -0.00388177 20.66924524 -0.00586975 C26.0294652 -0.00918297 31.38967187 -0.0093694 36.74989128 -0.00682259 C44.72148498 -0.00304533 52.69307016 -0.00497125 60.66466379 -0.00803089 C74.90518043 -0.01330292 89.1456926 -0.01283746 103.38620967 -0.00995198 C115.85824518 -0.00743729 128.33027905 -0.0067793 140.80231476 -0.00797462 C141.62934516 -0.00805101 142.45637557 -0.00812739 143.3084675 -0.00820609 C146.66575635 -0.00851744 150.0230452 -0.00883584 153.38033404 -0.00916586 C184.89802952 -0.01222708 216.41572214 -0.00944871 247.93341718 -0.00406896 C275.9084913 0.00066984 303.88356087 0.00025818 331.85863495 -0.00452995 C363.29421353 -0.00989239 394.72978958 -0.01200295 426.16536856 -0.00891769 C429.52153365 -0.00859699 432.87769874 -0.00828414 436.23386383 -0.00797462 C437.06022258 -0.00789555 437.88658134 -0.00781647 438.73798126 -0.007735 C451.18823912 -0.00660005 463.63849514 -0.00792324 476.08875275 -0.01045418 C490.26528958 -0.01332169 504.44182123 -0.01258144 518.61835742 -0.00717343 C526.54129996 -0.00425025 534.46423127 -0.00402632 542.38717351 -0.00781961 C548.32214023 -0.01034616 554.25709719 -0.00757978 560.1920628 -0.00284503 C562.57921581 -0.00173596 564.96637034 -0.00227813 567.35352236 -0.00472082 C574.59953287 -0.0115614 581.84331322 0.02171055 589.08861542 0.12584114 C590.09536981 0.13894055 591.1021242 0.15203996 592.1393863 0.16553631 C595.06597601 0.21448686 597.99004344 0.29347783 600.9156189 0.38377762 C601.78701872 0.39738586 602.65841855 0.41099411 603.55622444 0.42501473 C609.47078466 0.65798407 609.47078466 0.65798407 612.61584616 3.03960598 C616.10475568 7.98178254 615.2652332 14.3547401 615.29174042 20.17662239 C615.29744049 21.14939629 615.30314056 22.12217018 615.30901337 23.12442207 C615.31844232 25.17949022 615.32498897 27.23457335 615.32884979 29.2896595 C615.33854912 32.41696518 615.36959022 35.54361156 615.40111542 38.67076302 C615.4076469 40.67271226 615.4128968 42.67466618 615.41674042 44.67662239 C615.42908722 45.6039669 615.44143402 46.53131142 615.45415497 47.48675728 C615.4153169 58.92932561 615.4153169 58.92932561 612.08861542 63.12584114 C607.24430288 65.71178021 603.60463728 66.50108561 598.05516815 66.49815559 C597.39078735 66.50180626 596.72640656 66.50545692 596.04189301 66.50921822 C593.86839654 66.51725593 591.69566166 66.50377279 589.52220917 66.48912239 C587.99959056 66.48860303 586.47697128 66.48912368 584.95435333 66.49063301 C581.77284911 66.4905436 578.5915999 66.48017611 575.41014862 66.46202278 C571.34271296 66.43931731 567.27564871 66.43879833 563.20816708 66.44554043 C560.06736734 66.44888961 556.92665149 66.44223279 553.78586769 66.43241119 C552.28643547 66.42857673 550.78699388 66.42740367 549.2875576 66.42899704 C547.18908173 66.42937 545.0910734 66.41668459 542.99266815 66.40049934 C541.80132767 66.39589195 540.60998718 66.39128456 539.38254547 66.38653755 C535.93899773 66.11399973 533.2447159 65.52975444 530.08861542 64.12584114 C528.80525146 60.27574928 528.72259654 56.52065165 528.52611542 52.50084114 C528.46134003 51.37548958 528.46134003 51.37548958 528.39525604 50.22740364 C528.10418451 44.57229952 528.06572729 38.92975268 528.07714081 33.26890755 C528.07796913 32.48385338 528.07879745 31.69879921 528.07965088 30.88995552 C528.08179802 28.96858294 528.08509026 27.04721169 528.08861542 25.12584114 C477.60238404 25.16985997 427.11615757 25.21744269 376.62995148 25.28482246 C375.88320475 25.28581803 375.13645802 25.2868136 374.36708261 25.28783933 C358.13979018 25.3094959 341.91249872 25.33181845 325.68520815 25.35482742 C317.72779916 25.36610632 309.77038996 25.377238 301.81298065 25.38829231 C301.0211063 25.38939488 300.22923195 25.39049744 299.41336141 25.39163342 C273.72837661 25.42732684 248.04339313 25.45329104 222.35839242 25.47423083 C195.97231859 25.4957934 169.58627408 25.52712952 143.20022718 25.57083227 C139.47672187 25.57699487 135.75321638 25.58304528 132.02971077 25.5890274 C131.29684328 25.59020829 130.5639758 25.59138917 129.80890021 25.59260583 C117.99317292 25.61135581 106.1774597 25.61974723 94.36171936 25.62430238 C82.49416105 25.62909722 70.62666004 25.64495887 58.7591302 25.6715068 C52.32446245 25.68557372 45.8898843 25.69467334 39.4552002 25.6908493 C33.57247174 25.68745911 27.68993522 25.69768733 21.80724613 25.71907666 C19.67127806 25.72437997 17.53529024 25.7245428 15.39932217 25.71923677 C12.5109698 25.71278878 9.62326351 25.72452182 6.73496532 25.74108028 C5.89254328 25.73480359 5.05012124 25.72852689 4.18217126 25.72205999 C-0.02719349 25.63652317 -0.02719349 25.63652317 -3.60486869 27.54066361 C-6.62148081 31.20067707 -6.05905816 35.71113954 -6.10778046 40.25627327 C-6.11678767 40.98252443 -6.12579488 41.70877558 -6.13507503 42.45703435 C-6.16420514 44.91985062 -6.1861914 47.38267653 -6.20801544 49.8455677 C-6.22718473 51.64412687 -6.24665754 53.44268282 -6.26640511 55.24123573 C-6.31972356 60.25990651 -6.36579157 65.27862128 -6.41002774 70.29737949 C-6.43897289 73.54389585 -6.46958842 76.79039281 -6.50060081 80.03689003 C-7.11658954 145.11568051 -7.24288346 210.19817919 -7.42879426 275.27928782 C-7.46397565 287.57400982 -7.50094903 299.86872556 -7.53907013 312.1634388 C-7.5417944 313.04222611 -7.54451867 313.92101342 -7.5473255 314.82643065 C-7.56101524 319.23954087 -7.57473347 323.652651 -7.58846581 328.06576109 C-7.70051362 364.08577512 -7.80769888 400.1058021 -7.91138458 436.12584114 C-4.59077719 436.8660527 -1.50655537 437.25636325 1.8932085 437.28027439 C3.31433863 437.29373641 3.31433863 437.29373641 4.76417845 437.30747038 C5.7997151 437.31234337 6.83525174 437.31721636 7.90216827 437.32223701 C9.01263466 437.33124422 10.12310105 437.34025144 11.26721793 437.34953159 C15.02382737 437.37863704 18.7804436 437.40061301 22.53710175 437.422472 C25.25862397 437.44112316 27.98013638 437.46108435 30.70165062 437.48086166 C37.44323009 437.52879344 44.1848355 437.57072657 50.92646785 437.61045156 C56.55274643 437.64363688 62.1790095 437.6788266 67.80526924 437.71505737 C154.80946635 438.27253199 241.81533382 438.44885648 328.82094014 438.64325082 C344.5840784 438.67852671 360.34721209 438.71549367 376.11034393 438.75352669 C377.80428631 438.7576131 377.80428631 438.7576131 379.53244974 438.76178206 C385.2044384 438.77547333 390.87642699 438.78919126 396.54841554 438.80292237 C442.72847288 438.91468425 488.90853982 439.02191697 535.08861542 439.12584114 C535.07290497 437.79407845 535.07290497 437.79407845 535.05687714 436.43541145 C535.02273785 433.13297607 534.99768874 429.83072896 534.97875214 426.52818489 C534.96871114 425.10042036 534.95507561 423.67267631 534.93773651 422.24498177 C534.9134039 420.18959173 534.9021134 418.13447422 534.89330292 416.07896614 C534.87759247 414.22513313 534.87759247 414.22513313 534.86156464 412.33384895 C535.07748756 409.28306698 535.37687145 407.62178978 537.08861542 405.12584114 C540.89698201 403.01130524 544.31763605 402.85948048 548.61962128 402.81944466 C549.9212471 402.80345726 551.22287292 402.78746986 552.56394196 402.770998 C553.97711036 402.76462159 555.39028349 402.75922876 556.80345917 402.75474739 C558.26167642 402.74577377 559.71989277 402.73665179 561.17810822 402.72738838 C564.23024986 402.71092838 567.28228219 402.70320349 570.33446503 402.70030403 C574.23638303 402.69491647 578.13726763 402.65721005 582.0388937 402.61155987 C585.04931098 402.58175302 588.05948013 402.57457975 591.07003212 402.57357788 C592.50811317 402.56938439 593.94619555 402.55698491 595.38413048 402.53606033 C608.01776396 402.36681228 608.01776396 402.36681228 611.95409393 405.47325325 C614.67705132 408.85709541 615.21218744 411.24282606 615.24974823 415.45445442 C615.25935577 416.32611244 615.26896332 417.19777046 615.278862 418.09584236 C615.28311188 419.03644508 615.28736176 419.97704781 615.29174042 420.94615364 C615.29744049 421.91938576 615.30314056 422.89261787 615.30901337 423.89534187 C615.31846403 425.95816652 615.32499761 428.02100626 615.32884979 430.08384895 C615.33851388 433.21791221 615.36951962 436.35130795 615.40111542 439.48521614 C615.40764996 441.49302476 615.41289866 443.50083806 615.41674042 445.50865364 C615.42908722 446.43711098 615.44143402 447.36556831 615.45415497 448.32216072 C615.43449564 454.15603237 614.97033967 459.92239965 612.08861542 465.12584114 C599.71749199 469.24954895 584.13846735 467.26853637 571.27605438 467.25955391 C568.73862113 467.26142359 566.20118817 467.26372491 563.66375566 467.26641923 C558.15968869 467.27125112 552.6556343 467.27299417 547.15156555 467.27196312 C538.96684146 467.27043367 530.78212704 467.2746098 522.59740483 467.27983775 C507.12921501 467.28949247 491.6610285 467.29232124 476.19283602 467.2928948 C464.25052536 467.29335474 452.308216 467.29541511 440.36590576 467.29859543 C436.92569169 467.29949299 433.48547761 467.3003828 430.04526353 467.30127031 C428.76234764 467.30160188 428.76234764 467.30160188 427.45351427 467.30194015 C403.40908964 467.30809104 379.36466547 467.31204102 355.32024002 467.31159687 C354.41434899 467.31158129 353.50845797 467.31156571 352.5751157 467.31154966 C347.98386685 467.31146656 343.39261801 467.31136752 338.80136916 467.31126495 C337.43364852 467.31123504 337.43364852 467.31123504 336.03829716 467.31120451 C334.19439228 467.31116408 332.3504874 467.31112228 330.50658252 467.31107912 C301.7985702 467.31046595 273.09056967 467.31798209 244.38256073 467.33165169 C212.11934986 467.34700785 179.85614674 467.35561828 147.59293199 467.35468847 C144.15397533 467.35461383 140.71501867 467.35456513 137.27606201 467.35453415 C136.42931893 467.35452249 135.58257585 467.35451084 134.71017388 467.35449883 C121.08037783 467.35446805 107.45059203 467.36085528 93.82079903 467.36946641 C80.12992955 467.37793745 66.43907508 467.37893707 52.74820444 467.37235709 C44.61383695 467.36865849 36.47951502 467.37050316 28.34515235 467.38029943 C22.27445049 467.38699327 16.20380254 467.38325497 10.13310006 467.37542621 C7.67506722 467.3738837 5.21702947 467.37573547 2.75900242 467.38128629 C-0.57781366 467.38832386 -3.91439366 467.38307023 -7.25120163 467.37473011 C-8.20891059 467.37969829 -9.16661955 467.38466647 -10.15335 467.3897852 C-19.06602166 467.34258139 -27.2487625 466.54618606 -33.91138458 460.12584114 C-41.81749226 450.55528974 -39.06377198 432.51448604 -39.07201385 420.5963459 C-39.0767574 418.87460891 -39.08190995 417.15287301 -39.08743149 415.43113834 C-39.10120077 410.74128251 -39.10888156 406.05143434 -39.11540449 401.36156356 C-39.12181855 397.32939756 -39.1318816 393.29724385 -39.14196514 389.2650856 C-39.17511059 376.0013649 -39.19676424 362.73763675 -39.21516499 349.47388837 C-39.21996786 346.02008996 -39.2249501 342.56629185 -39.22997022 339.11249375 C-39.26092099 317.63933475 -39.28758711 296.16617294 -39.304389 274.69299793 C-39.30833801 269.73172882 -39.31234112 264.77045976 -39.31641388 259.80919075 C-39.31742224 258.57620063 -39.3184306 257.34321051 -39.31946952 256.07285706 C-39.3365036 236.06660587 -39.37765542 216.06047775 -39.42843687 196.05428674 C-39.48019393 175.49431835 -39.50932753 154.93441341 -39.51658589 134.37438041 C-39.5212474 122.83822013 -39.53599373 111.30226236 -39.57633018 99.76616669 C-39.61060938 89.95122481 -39.62457732 80.13652212 -39.61190604 70.32152381 C-39.60607662 65.31555293 -39.60996432 60.31008817 -39.64007568 55.3041935 C-39.66743045 50.71925532 -39.66694552 46.13518308 -39.64456523 41.55022571 C-39.64134201 39.89437048 -39.64821246 38.23845732 -39.66636246 36.58269843 C-39.76293885 27.20172878 -39.36165533 19.57281475 -32.91138458 12.12584114 C-23.10308262 2.83765045 -13.18538302 -0.03277452 0 0 Z " fill="#8C8C8E" transform="translate(281.91138458251953,132.87415885925293)"/>
<path d="M0 0 C1.00672867 -0.00679667 1.00672867 -0.00679667 2.0337953 -0.01373065 C4.27540336 -0.02635827 6.51676797 -0.0247554 8.75840759 -0.02310181 C10.3684012 -0.02908789 11.97839194 -0.03589363 13.58837891 -0.04345703 C17.95599608 -0.06111128 22.32353488 -0.06581203 26.69118428 -0.0670886 C30.3370431 -0.06898875 33.98288369 -0.0763472 37.62873548 -0.08343279 C46.22763299 -0.09971045 54.82648863 -0.10460213 63.42539978 -0.10317993 C72.29997155 -0.1019771 81.17430068 -0.12310845 90.04881102 -0.15466726 C97.66760659 -0.18079649 105.2863227 -0.19154871 112.90516275 -0.19026911 C117.45597681 -0.1897587 122.00657497 -0.19548623 126.55734444 -0.21662521 C130.83462217 -0.23595248 135.11147672 -0.23617019 139.38876915 -0.22159195 C140.95934287 -0.2194962 142.52994271 -0.22425019 144.1004715 -0.23631287 C146.24285647 -0.2517038 148.38377075 -0.24250056 150.52612305 -0.22705078 C151.72533418 -0.22814032 152.92454531 -0.22922985 154.16009617 -0.2303524 C157.91332699 0.38431836 158.86647617 1.31527177 161.1995697 4.26742554 C161.69866502 6.93214411 161.69866502 6.93214411 161.69734764 10.03993893 C161.70654523 11.22569073 161.71574282 12.41144253 161.72521913 13.6331262 C161.714932 14.93709571 161.70464488 16.24106521 161.69404602 17.58454895 C161.69722185 18.98274993 161.70214869 20.38094785 161.70867884 21.77913719 C161.72152596 25.62572939 161.70935466 29.47190165 161.69315028 33.31846631 C161.68001074 37.46510182 161.6898901 41.61168983 161.69691467 45.7583313 C161.70700676 53.88361596 161.69570513 62.00873803 161.67721407 70.1340025 C161.65646227 79.59214823 161.65658603 89.05025864 161.65755923 98.50842286 C161.65856094 115.38263325 161.64022539 132.25676788 161.6111908 149.13095093 C161.58301952 165.51182434 161.56884903 181.89263108 161.57017517 198.27352905 C161.57029504 199.78659944 161.57029504 199.78659944 161.57041733 201.3302369 C161.57049804 202.33719077 161.57057875 203.34414463 161.5706619 204.38161224 C161.57204127 223.01871421 161.56026267 241.6557878 161.54235547 260.29288058 C161.53631948 266.88846079 161.53419595 273.48403579 161.53329086 280.07961845 C161.53192719 288.11627856 161.5230063 296.15289085 161.50462525 304.18953066 C161.49538485 308.29135931 161.48929988 312.39312675 161.49181366 316.49496651 C161.4940024 320.24839754 161.48697525 324.00169317 161.47251661 327.75509597 C161.46716592 329.75938441 161.47161193 331.76369156 161.47638071 333.76798147 C161.46670737 335.55052079 161.46670737 335.55052079 161.45683861 337.36907101 C161.45542976 338.39480565 161.45402091 339.42054029 161.45256937 340.4773578 C160.96665087 345.83604281 159.13116332 348.68606333 155.12535095 352.25180054 C150.50034961 354.69094932 144.71796136 354.39342493 139.59642029 354.40113831 C138.30954819 354.40540329 137.02267609 354.40966827 135.69680786 354.4140625 C134.28822324 354.41371306 132.87963863 354.41325157 131.47105408 354.41268921 C129.97400835 354.41568436 128.47696339 354.4190877 126.97991943 354.42286682 C122.92833611 354.43167265 118.87677393 354.43404343 114.82518196 354.43468261 C112.29150296 354.4353948 109.75782929 354.43753227 107.22415161 354.44017982 C98.37855184 354.44942037 89.53296711 354.45351613 80.68736267 354.45272827 C72.45135674 354.45212711 64.21541623 354.46268976 55.97942686 354.47847193 C48.89812777 354.49155635 41.81685005 354.49691182 34.73553896 354.49627286 C30.51056902 354.49601824 26.28565732 354.49885021 22.06069946 354.50945091 C18.0879933 354.51914763 14.11540089 354.51920031 10.14269066 354.51193428 C8.68787151 354.51089055 7.23304521 354.51323874 5.7782383 354.51929474 C3.78641306 354.52704702 1.79454886 354.52115596 -0.19728088 354.5146637 C-1.86637638 354.51548085 -1.86637638 354.51548085 -3.56919098 354.51631451 C-7.29272309 354.22950626 -10.32137021 353.64537296 -13.8004303 352.26742554 C-16.53443309 348.63800517 -17.23205945 345.7670951 -17.47999382 341.27586651 C-17.54428636 340.12706237 -17.60857891 338.97825824 -17.67481971 337.79464185 C-17.87269417 332.23821524 -17.93821473 326.6920914 -17.92741394 321.13237 C-17.92897393 319.87622853 -17.93053392 318.62008706 -17.93214118 317.32588071 C-17.93627443 313.87830929 -17.93427127 310.43076593 -17.93115497 306.98319447 C-17.92887624 303.24957228 -17.93239278 299.51595464 -17.93513489 295.78233337 C-17.93956591 288.4821619 -17.93862782 281.18200075 -17.93572225 273.88182888 C-17.93345684 267.94217062 -17.93316061 262.00251524 -17.93424606 256.06285667 C-17.93447591 254.79107735 -17.93447591 254.79107735 -17.93471041 253.49360552 C-17.93503016 251.77073263 -17.93535437 250.04785973 -17.935683 248.32498684 C-17.9385302 232.19299902 -17.93526314 216.0610169 -17.92988263 199.92903002 C-17.92541933 186.12035757 -17.92618809 172.31169354 -17.93080139 158.50302124 C-17.93616757 142.43349751 -17.93825134 126.36397878 -17.93518913 110.29445428 C-17.93487061 108.57666059 -17.93455624 106.85886691 -17.93424606 105.14107323 C-17.93409179 104.29609492 -17.93393751 103.45111662 -17.93377856 102.58053291 C-17.93291923 96.65820818 -17.93436374 90.73588663 -17.93672562 84.81356239 C-17.93954674 77.5811986 -17.93873714 70.34884564 -17.93344487 63.11648307 C-17.93083821 59.43424722 -17.92975049 55.75202936 -17.93309402 52.0697937 C-17.93997394 43.46829949 -17.9039564 34.8684005 -17.8004303 26.26742554 C-17.79261205 25.30165329 -17.78479381 24.33588104 -17.77673864 23.34084296 C-17.74720408 20.8124047 -17.68401123 18.28781691 -17.60484314 15.76051331 C-17.59962304 15.06705757 -17.59440295 14.37360184 -17.58902466 13.6591323 C-17.34693477 8.24212999 -15.58145743 5.90398291 -11.8004303 2.26742554 C-7.91019325 0.05418421 -4.42591097 0.01236614 0 0 Z M27.1995697 27.26742554 C27.0101294 41.24633823 26.84799655 55.22551931 26.6995697 69.20492554 C26.68769245 70.32245712 26.6758152 71.43998871 26.66357803 72.59138489 C26.08532062 127.89902577 26.11525519 183.20737861 26.1370697 238.51742554 C26.13749393 239.62453557 26.13791817 240.73164561 26.13835526 241.87230444 C26.14957491 270.67068619 26.16991308 299.46905698 26.1995697 328.26742554 C40.67684748 328.95682908 55.1125288 329.41336675 69.6058197 329.36508179 C71.32029681 329.36320672 73.03477447 329.361788 74.74925232 329.36079407 C79.16796971 329.35705429 83.58665193 329.347302 88.00535583 329.33609009 C92.55185979 329.32568737 97.09836967 329.32125693 101.6448822 329.31625366 C110.49646049 329.30566792 119.34801067 329.28870054 128.1995697 329.26742554 C129.46270064 326.74116367 129.35834236 324.95191265 129.40390015 322.12194824 C129.4236408 321.01690067 129.44338146 319.9118531 129.46372032 318.77331924 C129.48849921 316.92406153 129.48849921 316.92406153 129.51377869 315.03744507 C129.53443705 313.72232815 129.55509541 312.40721123 129.57637978 311.05224228 C129.63319697 307.33821721 129.68194019 303.62412492 129.72826695 299.9099555 C129.75840417 297.50603683 129.79009788 295.10214219 129.8219738 292.698246 C130.45518816 244.08045042 130.31452549 195.45651467 130.27159727 146.83571362 C130.26016008 133.64697677 130.25485698 120.45823921 130.24989331 107.26949859 C130.2396029 80.26880207 130.22216151 53.26811438 130.1995697 26.26742554 C119.97041398 26.23692295 109.74126353 26.21648445 99.5120697 26.20492554 C98.75984383 26.20406952 98.00761795 26.2032135 97.23259735 26.20233154 C73.87489507 26.17883356 50.54245583 26.35525289 27.1995697 27.26742554 Z " fill="#1E9AD6" transform="translate(312.80043029785156,198.73257446289063)"/>
<path d="M0 0 C1.82069 -0.00788544 1.82069 -0.00788544 3.67816162 -0.01593018 C6.99009284 -0.02683574 10.30145836 -0.02433148 13.61335731 -0.01479292 C17.0854921 -0.00717034 20.55760358 -0.01424864 24.02973938 -0.01895142 C29.85597042 -0.02439925 35.68208712 -0.0172407 41.50830078 -0.00292969 C48.24140548 0.01341806 54.97423794 0.00808918 61.70733613 -0.0084089 C67.49605059 -0.02202415 73.28468313 -0.02394397 79.07340842 -0.0160929 C82.52756294 -0.01141951 85.98158944 -0.01078269 89.4357357 -0.02070236 C93.28278571 -0.03098034 97.12953054 -0.01673403 100.9765625 0 C102.1200264 -0.00607269 103.2634903 -0.01214539 104.44160461 -0.0184021 C105.48875641 -0.00994263 106.5359082 -0.00148315 107.61479187 0.00723267 C108.52380595 0.00836374 109.43282003 0.00949482 110.36938 0.01066017 C113.28449135 0.46451967 114.66849018 1.3706093 116.79418945 3.38818359 C117.24829102 5.65649414 117.24829102 5.65649414 117.18481445 8.27490234 C117.17192383 9.21269531 117.1590332 10.15048828 117.14575195 11.11669922 C117.09547852 12.58139648 117.09547852 12.58139648 117.04418945 14.07568359 C117.02614258 15.06375 117.0080957 16.05181641 116.98950195 17.06982422 C116.94234393 19.51025202 116.87654987 21.94873129 116.79418945 24.38818359 C111.07373561 26.32214486 105.91109922 26.72536943 99.89575195 26.80224609 C98.42022354 26.83129532 98.42022354 26.83129532 96.91488647 26.8609314 C94.80848883 26.9004685 92.70200203 26.93547643 90.59545898 26.96630859 C87.57417459 27.01089634 84.55345583 27.0690772 81.5324707 27.13037109 C57.95070792 27.54227961 34.38536039 27.38818359 10.79418945 27.38818359 C11.12418945 62.69818359 11.45418945 98.00818359 11.79418945 134.38818359 C21.60069264 135.00109004 31.2017995 135.51952059 40.9934082 135.52880859 C43.37948575 135.54709785 45.7655538 135.56666439 48.15161133 135.58740234 C51.84278164 135.61656593 55.53331537 135.63819033 59.22460938 135.63867188 C62.83559144 135.64199319 66.44516962 135.67640135 70.0559082 135.71630859 C71.16109299 135.70923889 72.26627777 135.70216919 73.404953 135.69488525 C77.91783535 135.76687126 80.98120682 135.94771178 84.98632812 138.11767578 C87.88191221 143.35592621 87.50681593 148.49981371 87.45825195 154.38818359 C87.46303558 155.65662109 87.46781921 156.92505859 87.4727478 158.23193359 C87.47614879 160.91249184 87.46946224 163.59076502 87.44604492 166.27099609 C87.41755487 169.69794214 87.43396647 173.1229304 87.46390724 176.54980469 C87.48636989 179.82933352 87.47062006 183.10862916 87.45825195 186.38818359 C87.47343369 188.22896484 87.47343369 188.22896484 87.48892212 190.10693359 C87.47316132 191.25162109 87.45740051 192.39630859 87.44116211 193.57568359 C87.43519516 195.08195312 87.43519516 195.08195312 87.42910767 196.61865234 C86.53155802 200.53378937 84.98248561 201.99413849 81.79418945 204.38818359 C78.45951843 205.06538391 78.45951843 205.06538391 74.6171875 205.1394043 C73.56270668 205.16976021 73.56270668 205.16976021 72.48692322 205.20072937 C70.17646914 205.26153743 67.86699365 205.28795106 65.5559082 205.31396484 C63.9487482 205.34953617 62.34163454 205.38726118 60.73457336 205.42704773 C56.51473301 205.52574872 52.29490077 205.59525052 48.07440186 205.65863037 C43.76382277 205.72854701 39.45387944 205.82613971 35.14379883 205.92138672 C26.69430549 206.10403741 18.24461971 206.25583741 9.79418945 206.38818359 C9.79603304 207.10932909 9.79787663 207.83047459 9.79977608 208.57347298 C9.84395663 226.12552623 9.87704677 243.67756535 9.8978138 261.22966194 C9.90812366 269.71774417 9.92217848 278.20578926 9.94506836 286.69384766 C9.96501108 294.09256734 9.977908 301.49126013 9.98236644 308.89000595 C9.98497232 312.80709721 9.99109128 316.72411154 10.00564957 320.64117813 C10.01924741 324.32979201 10.02340765 328.01829741 10.02040482 331.70693398 C10.02121539 333.70250966 10.03196551 335.6980736 10.04302979 337.69361877 C10.04028046 338.88826248 10.03753113 340.08290619 10.03469849 341.31375122 C10.03654207 342.34800295 10.03838566 343.38225468 10.04028511 344.44784737 C9.75711325 347.8311679 9.29944092 351.88293213 6.79418945 354.38818359 C2.67754632 354.72449673 -1.45219544 354.71316733 -5.58081055 354.76318359 C-6.74354492 354.80056641 -7.9062793 354.83794922 -9.10424805 354.87646484 C-10.21799805 354.88806641 -11.33174805 354.89966797 -12.47924805 354.91162109 C-13.50453613 354.93144043 -14.52982422 354.95125977 -15.58618164 354.97167969 C-18.20581055 354.38818359 -18.20581055 354.38818359 -19.84611672 352.21523583 C-21.36710679 349.05281919 -21.58073089 347.06349178 -21.58054066 343.57185173 C-21.5877472 342.40174266 -21.59495374 341.23163358 -21.60237867 340.02606666 C-21.59500438 338.74466651 -21.5876301 337.46326635 -21.58003235 336.14303589 C-21.58277311 334.76474899 -21.58682534 333.38646418 -21.592076 332.00818455 C-21.60267013 328.22110884 -21.5945291 324.43426891 -21.58332551 320.64720345 C-21.57448934 316.56250607 -21.58292552 312.47783975 -21.58918762 308.3931427 C-21.5986826 300.38966984 -21.59206879 292.38628707 -21.57992468 284.38282089 C-21.56630509 275.05938283 -21.56794264 265.73596625 -21.57005801 256.41252078 C-21.5732492 239.77092636 -21.56157488 223.12937471 -21.54199219 206.48779297 C-21.52300591 190.34878231 -21.51589969 174.20982181 -21.52148438 158.07080078 C-21.52754797 140.49580767 -21.52735304 122.92083663 -21.51599854 105.34584534 C-21.51479128 103.46993454 -21.51358529 101.59402375 -21.5123806 99.71811295 C-21.51177706 98.79515878 -21.51117352 97.87220461 -21.51055169 96.92128213 C-21.50667775 90.4271929 -21.50706422 83.9331119 -21.50896645 77.43902206 C-21.51109302 69.51674688 -21.50582986 61.59451555 -21.49135289 53.6722527 C-21.48412921 49.6324542 -21.48001442 45.59271944 -21.48459625 41.55291557 C-21.48869456 37.84917607 -21.48344542 34.14556774 -21.47097018 30.44184805 C-21.46668925 28.47882231 -21.47210866 26.51578265 -21.47795945 24.55276096 C-21.40635459 9.99462537 -21.40635459 9.99462537 -19.20581055 3.38818359 C-13.64627797 -0.81378009 -6.73565715 -0.03596263 0 0 Z " fill="#1F9BD6" transform="translate(658.205810546875,198.61181640625)"/>
<path d="M0 0 C1.09675049 -0.00700928 2.19350098 -0.01401855 3.32348633 -0.02124023 C6.93507478 -0.03879222 10.54587482 -0.02720908 14.1574707 -0.01367188 C16.67137299 -0.01636699 19.18527425 -0.02024957 21.69917297 -0.02526855 C26.96050015 -0.03115933 32.22162326 -0.02299472 37.48291016 -0.00390625 C43.56172599 0.01789386 49.6400058 0.01078278 55.71880883 -0.01121187 C61.57668348 -0.03155645 67.43435459 -0.02939772 73.29224586 -0.01768494 C75.7813811 -0.01501423 78.27053 -0.01829944 80.75964928 -0.02760315 C84.23336671 -0.03774074 87.70604747 -0.02230678 91.1796875 0 C92.21094254 -0.00809692 93.24219757 -0.01619385 94.30470276 -0.02453613 C101.25686531 0.05833958 101.25686531 0.05833958 104.53613281 2.41551208 C106.09874864 4.83142516 106.3766546 6.10150355 106.3215332 8.95898438 C106.3131543 9.78978516 106.30477539 10.62058594 106.29614258 11.4765625 C106.26713867 12.33572266 106.23813477 13.19488281 106.20825195 14.08007812 C106.19858398 14.94310547 106.18891602 15.80613281 106.17895508 16.6953125 C106.1151351 20.26645625 106.0334929 23.10435529 104.89575195 26.51757812 C102.26084324 27.39588103 100.52067861 27.69051412 97.80322266 27.81640625 C96.55245186 27.87544128 96.55245186 27.87544128 95.27641296 27.93566895 C93.90655998 27.99168274 93.90655998 27.99168274 92.5090332 28.04882812 C91.54306717 28.09036011 90.57710114 28.13189209 89.5818634 28.17468262 C75.50237889 28.74036222 61.41110892 28.8740891 47.32275391 29.06982422 C33.4898189 29.26639418 19.69590108 29.49982793 5.89575195 30.51757812 C5.71887165 34.92995959 5.56009276 39.34263448 5.41357422 43.75610352 C5.36243412 45.23574678 5.30750995 46.71526763 5.24755859 48.19458008 C4.48075325 67.29803487 5.31651376 86.41829308 5.89575195 105.51757812 C7.04975998 105.51900314 8.20376801 105.52042816 9.39274597 105.52189636 C20.26661286 105.53856367 31.14010539 105.58132929 42.01377392 105.64966869 C47.60412655 105.68396387 53.19420516 105.70905265 58.78466797 105.71313477 C64.17952878 105.71741222 69.57377118 105.74582957 74.9684391 105.7910099 C77.02688305 105.8040025 79.08540093 105.80828637 81.14388084 105.80373192 C84.0269389 105.79883854 86.90818076 105.8248624 89.79101562 105.8581543 C90.64265793 105.84952866 91.49430023 105.84090302 92.37174988 105.83201599 C96.56109612 105.9131477 98.4233942 106.18095607 101.92634583 108.67730713 C104.21985145 111.98499334 104.51871825 113.63017144 104.51098633 117.62133789 C104.52494446 119.43330406 104.52494446 119.43330406 104.53918457 121.28187561 C104.52278931 122.5778215 104.50639404 123.8737674 104.48950195 125.20898438 C104.4877896 126.55988966 104.48785781 127.91079827 104.48962402 129.26170349 C104.48797371 132.08714773 104.46932929 134.91179569 104.43774414 137.73706055 C104.39802797 141.3542869 104.39370475 144.97047323 104.40120697 148.58787632 C104.40427949 151.37523386 104.39214703 154.16235857 104.37507629 156.94965935 C104.3646519 158.93049137 104.36419899 160.91136775 104.3638916 162.89222717 C104.34797974 164.09705246 104.33206787 165.30187775 104.31567383 166.54321289 C104.30725464 167.60290787 104.29883545 168.66260284 104.29016113 169.75440979 C103.84121095 172.89968375 103.10922693 174.2669991 100.89575195 176.51757812 C98.00552893 177.4809858 96.16318705 177.64959545 93.15809631 177.66474915 C92.18371109 177.67190445 91.20932587 177.67905975 90.20541382 177.68643188 C89.13779816 177.68912079 88.0701825 177.69180969 86.97021484 177.69458008 C85.84478775 177.70115128 84.71936066 177.70772247 83.55982971 177.7144928 C79.82935524 177.73423177 76.09892097 177.74588778 72.3684082 177.75585938 C71.0963748 177.7599349 69.82434139 177.76401043 68.51376152 177.76820946 C62.47921808 177.78691838 56.44469908 177.80148611 50.41013438 177.80982143 C43.44446898 177.81960208 36.47912066 177.84594719 29.51356703 177.88632232 C23.47954653 177.92009833 17.44568031 177.9319643 11.41155815 177.93602562 C8.84425133 177.94090884 6.27694832 177.95257173 3.70970345 177.97106361 C0.12310339 177.99529872 -3.46266029 177.99451862 -7.04931641 177.98754883 C-8.64770355 178.00676392 -8.64770355 178.00676392 -10.27838135 178.02636719 C-11.2555864 178.01942337 -12.23279144 178.01247955 -13.23960876 178.00532532 C-14.08744903 178.00771367 -14.93528929 178.01010202 -15.80882168 178.01256275 C-19.03573998 177.31671166 -20.17374591 176.17495792 -22.10424805 173.51757812 C-22.60761261 170.53333664 -22.60761261 170.53333664 -22.61218262 166.97821045 C-22.62154256 165.99537279 -22.62154256 165.99537279 -22.63109159 164.99267983 C-22.64703842 162.79846407 -22.63441183 160.60535669 -22.62182617 158.41113281 C-22.6272468 156.83732963 -22.63436913 155.26353153 -22.64306641 153.68974304 C-22.6613159 149.41465939 -22.65422407 145.1399615 -22.64155006 140.86487103 C-22.63142364 136.38827664 -22.64081541 131.91171531 -22.64709473 127.43511963 C-22.65437519 119.91290359 -22.64477615 112.39084455 -22.62573242 104.86865234 C-22.60399449 96.18217431 -22.61099094 87.49607227 -22.63303804 78.80960345 C-22.6512185 71.34700651 -22.6537365 63.88452248 -22.64328337 56.42191052 C-22.63705888 51.96711144 -22.63618331 47.51248874 -22.64942932 43.05770111 C-22.66102463 38.86492235 -22.65289534 34.67262542 -22.62985229 30.47989845 C-22.62458341 28.94488384 -22.6260477 27.40982836 -22.63490295 25.87483025 C-22.71878325 9.85136234 -22.71878325 9.85136234 -18.10424805 4.51757812 C-12.38726742 -0.09877876 -7.15487363 -0.05650943 0 0 Z " fill="#1B99D6" transform="translate(512.104248046875,375.482421875)"/>
<path d="M0 0 C14.84962644 12.71930029 26.54484361 31.95881574 28.15234375 51.75390625 C29.38621264 81.14816077 29.38621264 81.14816077 25.15234375 93.75390625 C24.73855469 94.98753906 24.32476562 96.22117187 23.8984375 97.4921875 C16.26566713 118.78148599 1.45880713 134.05528965 -18.57885742 144.02026367 C-28.65076333 148.75026926 -39.72888229 151.32554477 -50.84765625 151.75390625 C-51.66878906 151.79386719 -52.48992187 151.83382812 -53.3359375 151.875 C-76.11657349 152.44873454 -97.28898994 146.42399344 -114.84765625 131.75390625 C-115.84732422 130.97273438 -115.84732422 130.97273438 -116.8671875 130.17578125 C-132.46537286 117.50033279 -141.67507477 97.48988009 -143.84765625 77.75390625 C-145.18553132 53.85564827 -142.29672874 30.98577632 -126.84765625 11.75390625 C-126.17992188 10.92246094 -125.5121875 10.09101562 -124.82421875 9.234375 C-93.73850186 -27.29414792 -36.55552468 -28.83323278 0 0 Z M-88.84765625 -0.24609375 C-89.54375 0.25535156 -90.23984375 0.75679687 -90.95703125 1.2734375 C-105.45367251 12.82018083 -110.53505186 31.11550852 -112.84765625 48.75390625 C-113.32898738 54.16407132 -113.33535939 59.57663629 -113.28515625 65.00390625 C-113.28178253 65.71835907 -113.27840881 66.43281189 -113.27493286 67.16891479 C-113.12554524 89.11362053 -109.64342471 111.28597743 -93.84765625 127.75390625 C-93.23277344 128.39714844 -92.61789063 129.04039062 -91.984375 129.703125 C-82.64163861 138.62031232 -71.12604436 142.77452489 -58.33203125 142.74609375 C-43.98688478 142.03194144 -30.69627187 137.77780055 -20.6875 127.01171875 C-2.75503998 105.00543024 1.00671446 76.55931236 -1.56591797 49.09716797 C-3.88761445 29.78725216 -11.38729797 10.53260707 -26.8671875 -1.86328125 C-45.17981809 -15.12756503 -70.88899282 -13.21275109 -88.84765625 -0.24609375 Z " fill="#8C8D8F" transform="translate(183.84765625,718.24609375)"/>
<path d="M0 0 C6.38525407 -0.28036883 12.76890886 -0.4721135 19.15893555 -0.60424805 C21.32913504 -0.6593555 23.49892997 -0.73426998 25.66772461 -0.82983398 C43.66790597 -1.60274648 43.66790597 -1.60274648 49.25683594 2.23828125 C51.54335699 5.04415959 53.27020666 7.82741457 55 11 C56.07254691 12.33221128 57.18143068 13.63659053 58.3359375 14.8984375 C58.83681885 15.47279541 59.3377002 16.04715332 59.85375977 16.63891602 C60.35576904 17.21182373 60.85777832 17.78473145 61.375 18.375 C65.92679996 23.59847531 70.43682374 28.85318178 74.90136719 34.15136719 C78.28481948 38.16384184 81.70100184 42.14710388 85.125 46.125 C88.61823856 50.18620876 92.06448707 54.27518971 95.4375 58.4375 C99.53979949 63.48933717 103.78701978 68.4030598 108.06005859 73.31005859 C112.04635726 77.8901847 115.98717574 82.50550779 119.89916992 87.14916992 C122.27584214 89.96825485 124.66334426 92.77702209 127.0703125 95.5703125 C127.59036865 96.17415771 128.1104248 96.77800293 128.64624023 97.40014648 C129.62602212 98.53637065 130.60715298 99.67143403 131.59008789 100.80493164 C134.53284781 104.21894653 137.37727443 107.70069948 140.1887207 111.22387695 C141.26160088 112.5675811 141.26160088 112.5675811 142.3561554 113.93843079 C142.89862411 114.61874863 143.44109283 115.29906647 144 116 C144.06948682 102.91762322 144.12280469 89.83529029 144.15543652 76.75276661 C144.17109753 70.67812905 144.19234405 64.60361767 144.22631836 58.52905273 C144.25889582 52.66761216 144.27684973 46.80629302 144.28463173 40.94476891 C144.2901781 38.70763932 144.30100868 36.47051643 144.31719017 34.23343849 C144.33894263 31.10184957 144.34196779 27.97076355 144.34057617 24.83911133 C144.351362 23.91266312 144.36214783 22.9862149 144.3732605 22.0316925 C144.35000041 17.19972801 144.17472569 13.910696 141 10 C135.16084052 5.97341294 127.87708511 4.97693172 121 4 C120.505 2.02 120.505 2.02 120 0 C140.79 0 161.58 0 183 0 C183 1.32 183 2.64 183 4 C181.99839844 4.17015625 180.99679687 4.3403125 179.96484375 4.515625 C169.79924689 6.09479385 169.79924689 6.09479385 161 11 C158.38127251 17.51657873 158.56508903 24.27253502 158.41015625 31.21484375 C158.37309634 32.63411279 158.33590499 34.0533784 158.29859924 35.47264099 C157.71680894 59.16703687 157.6448953 82.87563188 157.46777344 106.57556152 C157.42180372 112.6296618 157.3723666 118.68373279 157.32291877 124.73780549 C157.21067156 138.49183571 157.1035224 152.24590152 157 166 C153 166 153 166 151.10546875 164.53125 C150.47253906 163.8609375 149.83960938 163.190625 149.1875 162.5 C148.48496094 161.76007813 147.78242187 161.02015625 147.05859375 160.2578125 C143.98209887 156.88359231 140.96332453 153.47424255 138 150 C136.04261822 147.70751906 134.08407272 145.41603604 132.125 143.125 C131.60542725 142.51664307 131.08585449 141.90828613 130.55053711 141.28149414 C127.52139597 137.74394582 124.44863446 134.25620632 121.3125 130.8125 C117.46148995 126.57291957 113.85156045 122.17067888 110.25 117.71875 C108.06498431 115.07852271 105.80828609 112.5327028 103.5 110 C99.58108748 105.70008209 95.90829131 101.24080453 92.25 96.71875 C90.06498431 94.07852271 87.80828609 91.5327028 85.5 89 C81.58108748 84.70008209 77.90829131 80.24080453 74.25 75.71875 C71.35524289 72.22091849 68.30410461 68.88214596 65.24609375 65.52734375 C62.93812402 62.93037607 60.74444137 60.26595987 58.5625 57.5625 C54.69337751 52.78021049 50.63316571 48.21861367 46.45703125 43.703125 C43.56899055 40.52582109 40.7786503 37.27290947 38 34 C37.10396553 58.5337097 36.81780739 83.07988206 36.71289062 107.62820435 C36.6980358 110.96010555 36.67360562 114.29172976 36.64111328 117.62350464 C36.60282992 121.61391696 36.584571 125.60394807 36.58104897 129.59453773 C36.57653966 131.08462502 36.56521116 132.5747092 36.54665184 134.06468773 C36.52228671 136.12771759 36.52314174 138.18931146 36.5300293 140.25244141 C36.52416306 141.4153067 36.51829681 142.578172 36.51225281 143.77627563 C37.18981207 148.25454706 39.18695875 151.53308481 42.71875 154.390625 C48.59496321 157.22564014 54.5576731 158.18397193 61 159 C61 160.65 61 162.3 61 164 C40.87 164 20.74 164 0 164 C0 162.35 0 160.7 0 159 C1.01320313 158.82984375 2.02640625 158.6596875 3.0703125 158.484375 C4.42200801 158.24031887 5.77356338 157.99548568 7.125 157.75 C7.79015625 157.64042969 8.4553125 157.53085937 9.140625 157.41796875 C15.04573107 156.31799801 20.1793234 153.78769116 24 149 C24.47162954 146.52293876 24.47162954 146.52293876 24.42805481 143.68856812 C24.4466304 142.58678223 24.46520599 141.48499634 24.48434448 140.349823 C24.4892691 139.14045074 24.49419373 137.93107849 24.49926758 136.68505859 C24.51576859 135.41160583 24.53226959 134.13815308 24.54927063 132.82611084 C24.59290406 129.32994947 24.61636557 125.83394456 24.63349748 122.33756208 C24.64451859 120.1509483 24.6588048 117.96437843 24.67401695 115.77779007 C24.72042181 108.93006432 24.75397963 102.08244345 24.7700327 95.23457849 C24.78874455 87.34176752 24.85006719 79.4508167 24.94853479 71.55860651 C25.02208462 65.45141994 25.05692075 59.34475866 25.06289595 53.23713553 C25.0673314 49.59256554 25.087894 45.9498345 25.14899635 42.30573654 C25.21604608 38.23311071 25.20278067 34.16443809 25.18286133 30.09130859 C25.21410095 28.89408173 25.24534058 27.69685486 25.27752686 26.46334839 C25.19704238 21.48393469 24.98604543 18.26779351 21.8702755 14.26173782 C16.44411818 9.20003104 11.43121313 6.3886117 4.1875 4.875 C3.39730469 4.70742188 2.60710938 4.53984375 1.79296875 4.3671875 C1.20128906 4.24601563 0.60960937 4.12484375 0 4 C0 2.68 0 1.36 0 0 Z " fill="#8D8E8F" transform="translate(916,706)"/>
<path d="M0 0 C45.54 0 91.08 0 138 0 C138 11.55 138 23.1 138 35 C132 33 132 33 130.2421875 30.35546875 C129.79101562 29.31003906 129.33984375 28.26460937 128.875 27.1875 C125.74867018 20.07819066 122.62151625 15.77258484 115.76306152 12.07002258 C110.44679836 10.01124771 104.98685917 10.31046937 99.35546875 10.37109375 C97.42445061 10.36747581 97.42445061 10.36747581 95.454422 10.36378479 C92.74703886 10.36094458 90.04049129 10.37546021 87.33325195 10.40307617 C83.86841731 10.43732983 80.40505784 10.43106862 76.94015026 10.4124136 C73.62010958 10.39930274 70.30049903 10.41754816 66.98046875 10.43359375 C65.7387944 10.42863388 64.49712006 10.42367401 63.21781921 10.41856384 C62.0659462 10.43440018 60.91407318 10.45023651 59.72729492 10.46655273 C58.71519455 10.47275131 57.70309418 10.47894989 56.6603241 10.4853363 C53.24474478 11.14611094 52.06270851 12.23188517 50 15 C49.39993701 17.1653016 49.39993701 17.1653016 49.4699707 19.50219727 C49.45347977 20.38734512 49.43698883 21.27249298 49.41999817 22.1844635 C49.42190659 23.13550461 49.423815 24.08654572 49.42578125 25.06640625 C49.40453438 26.55031105 49.40453438 26.55031105 49.38285828 28.06419373 C49.3409445 31.23040505 49.32573867 34.39605055 49.3125 37.5625 C49.28326504 40.70368724 49.24844107 43.84473695 49.21000671 46.98582458 C49.18786737 48.93812356 49.17184043 50.89050555 49.16316223 52.84291077 C49.11330288 59.27312497 48.67302626 65.6054534 48 72 C55.06267464 71.8141112 62.12406347 71.59934571 69.18530273 71.36523438 C71.58354169 71.28904344 73.9819941 71.21927227 76.38061523 71.15625 C79.84435917 71.06409468 83.30665806 70.94826202 86.76953125 70.828125 C88.35771416 70.79347137 88.35771416 70.79347137 89.97798157 70.75811768 C98.33504033 70.4325978 106.47846846 69.07197433 112.9375 63.4375 C115.96495231 59.16149984 117.42477515 53.94567801 119 49 C120.65 49 122.3 49 124 49 C124 67.81 124 86.62 124 106 C122.35 106 120.7 106 119 106 C118.84144531 105.43152344 118.68289063 104.86304688 118.51953125 104.27734375 C115.86503178 95.49256374 112.60727797 90.40981445 104.4765625 85.9453125 C98.93438677 83.82984479 92.95209373 83.8339389 87.08203125 83.71875 C86.34353439 83.70034058 85.60503754 83.68193115 84.84416199 83.66296387 C82.50034833 83.60474974 80.15646398 83.55178159 77.8125 83.5 C67.84056752 83.27717515 57.9324115 82.99967107 48 82 C48.53401617 110.22521775 48.53401617 110.22521775 49.5 138.4375 C49.55305298 139.70907959 49.55305298 139.70907959 49.60717773 141.00634766 C49.84318231 146.08264925 49.84318231 146.08264925 51 151 C53.44254082 152.22127041 55.04763974 152.1398753 57.77832031 152.16113281 C59.27193085 152.17554413 59.27193085 152.17554413 60.79571533 152.19024658 C62.42050812 152.1966214 62.42050812 152.1966214 64.078125 152.203125 C65.75536652 152.21167511 65.75536652 152.21167511 67.4664917 152.22039795 C69.84386242 152.2298646 72.22124636 152.23638851 74.59863281 152.24023438 C78.19360294 152.24984917 81.7879789 152.28081873 85.3828125 152.3125 C110.68626999 152.54159571 110.68626999 152.54159571 132.125 140.375 C136.52957822 135.75019287 139.73679355 130.4592562 143 125 C143.99 123.515 143.99 123.515 145 122 C148.625 121.8125 148.625 121.8125 152 122 C151.36978278 127.08215742 150.33310377 131.92850956 148.96875 136.8671875 C148.77277222 137.58738068 148.57679443 138.30757385 148.37487793 139.04959106 C147.96339577 140.55771046 147.54983465 142.06526404 147.13427734 143.57226562 C146.49648013 145.88777884 145.86695109 148.2054315 145.23828125 150.5234375 C144.83642397 151.99232067 144.43409721 153.46107551 144.03125 154.9296875 C143.84268433 155.62440155 143.65411865 156.3191156 143.45983887 157.03488159 C142.11526419 161.88473581 142.11526419 161.88473581 141 163 C139.17772313 163.09643778 137.3516664 163.12187371 135.52684021 163.12025452 C133.74518463 163.12231651 133.74518463 163.12231651 131.92753601 163.12442017 C129.95524773 163.11902725 129.95524773 163.11902725 127.94311523 163.11352539 C126.55382286 163.11324352 125.16453033 163.11340125 123.77523804 163.1139679 C119.99234711 163.11425588 116.20948762 163.10835901 112.42660403 163.10139394 C108.47744323 163.09516055 104.52828178 163.09455661 100.57911682 163.09336853 C93.09574925 163.09025517 85.61239621 163.08204172 78.12903506 163.07201904 C69.61164267 163.06085805 61.0942496 163.05534749 52.57685173 163.05032361 C35.05122606 163.03985911 17.52561457 163.02225958 0 163 C-0.33 161.68 -0.66 160.36 -1 159 C-0.13117188 158.82984375 0.73765625 158.6596875 1.6328125 158.484375 C10.5656654 156.79766926 10.5656654 156.79766926 18 152 C20.80564992 146.13856392 20.28795643 139.84656765 20.2746582 133.49633789 C20.27976913 132.23874161 20.28488007 130.98114532 20.29014587 129.68544006 C20.30349772 126.24738871 20.30411885 122.80944754 20.30158257 119.37137532 C20.30051033 116.49620035 20.30540266 113.62104744 20.310188 110.74587721 C20.32126984 103.9605321 20.32172795 97.17524235 20.31567383 90.38989258 C20.30963353 83.40069802 20.3219494 76.41170476 20.3432439 69.42254454 C20.36088229 63.41131056 20.36685776 57.40014052 20.36360615 51.38888162 C20.36179682 47.80326163 20.36439446 44.21778525 20.37832069 40.6321888 C20.39327566 36.63234592 20.38390944 32.63291067 20.37231445 28.63305664 C20.37995819 27.45205383 20.38760193 26.27105103 20.39547729 25.05426025 C20.35641662 18.95768314 20.09645887 14.32546171 17 9 C14.59010488 7.39483022 14.59010488 7.39483022 11.75 6.6875 C10.29400391 6.23697266 10.29400391 6.23697266 8.80859375 5.77734375 C7.41833984 5.39255859 7.41833984 5.39255859 6 5 C5.24847656 4.77441406 4.49695313 4.54882812 3.72265625 4.31640625 C2.15585537 3.85181294 0.57905138 3.42108037 -1 3 C-0.67 2.01 -0.34 1.02 0 0 Z " fill="#8D8E90" transform="translate(484,703)"/>
<path d="M0 0 C8 0 8 0 9.84765625 1.27734375 C10.24855469 1.82519531 10.64945312 2.37304688 11.0625 2.9375 C12.91150619 5.43631667 13.90764503 5.97282961 16.9609375 6.87109375 C22.34411569 7.42841268 27.44148495 5.59374237 32.5625 4.125 C34.58400417 3.56282932 36.60612371 3.00286589 38.62890625 2.4453125 C39.51650635 2.19281738 40.40410645 1.94032227 41.31860352 1.68017578 C48.7363609 -0.20144782 56.06921446 -0.25375003 63.67285156 -0.29516602 C65.12314694 -0.30658187 66.57340388 -0.3268649 68.0234375 -0.35668945 C92.54342935 -0.85910229 113.66342037 7.45287711 131.64526367 24.19848633 C148.13422366 40.11841145 155.91008969 60.21444016 156.35351562 82.97802734 C156.50314256 107.94192123 150.50529611 127.68772215 133 146 C132.45859375 146.61617187 131.9171875 147.23234375 131.359375 147.8671875 C117.45598182 163.10474467 95.55862855 170.00291523 75.49780273 171.14208984 C47.36988702 172.15261221 22.12232744 165.35130911 1.125 145.9375 C-0.60092794 144.30812747 -2.30454034 142.66130205 -4 141 C-2.84826645 138.53199953 -1.95216435 136.95216435 0 135 C3.39848695 135.32597732 5.00983837 136.7133915 7.375 139.0625 C25.3787001 155.21287803 48.64749414 159.19416223 72 158 C86.39920425 156.20009947 98.88017822 148.71900051 108 137.55078125 C123.29228358 116.55684883 125.58218322 91.23632049 122.375 66 C119.92921727 53.4461222 115.80285538 41.23155871 108 31 C107.46761719 30.27554688 106.93523437 29.55109375 106.38671875 28.8046875 C98.15640113 18.47259426 86.46050095 13.50482822 73.66015625 11.46875 C58.04257231 9.89446892 42.17115074 11.77888441 29.25 21.25 C18.76027493 30.0515053 12.52348303 40.36334075 7.76171875 53.1015625 C7 55 7 55 6 56 C4.02 56 2.04 56 0 56 C0 37.52 0 19.04 0 0 Z " fill="#269DD6" transform="translate(277,699)"/>
<path d="M0 0 C3.94187941 1.60595087 5.04848047 4.61169868 6.82421875 8.26171875 C7.23583252 9.07560059 7.64744629 9.88948242 8.0715332 10.72802734 C9.62199629 13.83005255 11.13179087 16.94983867 12.63671875 20.07421875 C12.95334473 20.72976746 13.2699707 21.38531616 13.59619141 22.06072998 C22.29377058 40.07647293 30.74562159 58.20081448 38.97067261 76.43676758 C46.21408715 92.48543571 53.78891597 108.37394093 61.39399719 124.25372314 C63.65577743 128.9867196 65.86991045 133.73733518 68.04296875 138.51171875 C68.53442383 139.5795459 69.02587891 140.64737305 69.53222656 141.74755859 C70.39463728 143.62689268 71.24439139 145.51212445 72.07714844 147.40478516 C75.06807327 153.86800685 78.76046854 158.25883205 85.2890625 161.31640625 C86.04316406 161.52523437 86.79726563 161.7340625 87.57421875 161.94921875 C88.34636719 162.17351562 89.11851562 162.3978125 89.9140625 162.62890625 C90.48253906 162.77585937 91.05101562 162.9228125 91.63671875 163.07421875 C91.63671875 164.39421875 91.63671875 165.71421875 91.63671875 167.07421875 C69.85671875 167.07421875 48.07671875 167.07421875 25.63671875 167.07421875 C25.63671875 165.75421875 25.63671875 164.43421875 25.63671875 163.07421875 C26.54035156 162.88085938 27.44398438 162.6875 28.375 162.48828125 C29.55449219 162.22789062 30.73398437 161.9675 31.94921875 161.69921875 C33.12097656 161.44398438 34.29273438 161.18875 35.5 160.92578125 C38.7659232 160.21726344 38.7659232 160.21726344 41.63671875 158.07421875 C42.50553976 151.78756108 40.33717679 146.78308279 38.01171875 141.01171875 C37.68042969 140.15900391 37.34914063 139.30628906 37.0078125 138.42773438 C34.05409438 130.8985397 30.82496496 123.51345991 27.63671875 116.07421875 C-6.51828125 115.57921875 -6.51828125 115.57921875 -41.36328125 115.07421875 C-50.95955303 134.16012624 -50.95955303 134.16012624 -54.36328125 156.07421875 C-51.40360139 159.84622124 -48.72874687 160.82085666 -44.11328125 161.82421875 C-43.035625 162.0665625 -41.95796875 162.30890625 -40.84765625 162.55859375 C-40.0278125 162.72875 -39.20796875 162.89890625 -38.36328125 163.07421875 C-38.36328125 164.39421875 -38.36328125 165.71421875 -38.36328125 167.07421875 C-55.52328125 167.07421875 -72.68328125 167.07421875 -90.36328125 167.07421875 C-90.36328125 165.75421875 -90.36328125 164.43421875 -90.36328125 163.07421875 C-89.73421875 162.88988281 -89.10515625 162.70554687 -88.45703125 162.515625 C-78.05998293 158.99252881 -73.25887559 152.00907905 -68.08984375 142.76171875 C-67.69825577 142.06218079 -67.30666779 141.36264282 -66.9032135 140.64190674 C-62.80344612 133.21296318 -59.26851337 125.56310142 -55.80078125 117.82421875 C-55.11166735 116.30079822 -54.42203814 114.7776107 -53.73193359 113.25463867 C-48.26948576 101.17763311 -42.88645632 89.06445224 -37.52099609 76.9440918 C-33.93045062 68.83506683 -30.31888924 60.73615223 -26.671875 52.65234375 C-26.27822754 51.77979446 -25.88458008 50.90724518 -25.47900391 50.008255 C-23.90750396 46.52594118 -22.33554984 43.04383307 -20.76275635 39.56210327 C-15.98801438 28.9876061 -11.25311913 18.40464617 -6.82250977 7.67993164 C-3.66446561 0.11508239 -3.66446561 0.11508239 0 0 Z M-7.36328125 38.07421875 C-14.41344406 53.07596851 -21.3395827 68.12967108 -28.09130859 83.26818848 C-28.81482996 84.89008491 -29.53960439 86.51142293 -30.265625 88.13220215 C-31.28779868 90.41582894 -32.30486365 92.70165766 -33.3203125 94.98828125 C-33.62906815 95.67663055 -33.93782379 96.36497986 -34.25593567 97.07418823 C-35.83664391 100.44488031 -35.83664391 100.44488031 -36.36328125 104.07421875 C-16.89328125 104.07421875 2.57671875 104.07421875 22.63671875 104.07421875 C20.3750813 97.11155939 20.3750813 97.11155939 17.66308594 90.43505859 C17.30551208 89.64328217 16.94793823 88.85150574 16.57952881 88.03573608 C16.20137024 87.21054474 15.82321167 86.38535339 15.43359375 85.53515625 C15.03271545 84.65123199 14.63183716 83.76730774 14.21881104 82.8565979 C12.94562776 80.05221545 11.6662061 77.25072965 10.38671875 74.44921875 C9.54387689 72.59392891 8.70142594 70.73846144 7.859375 68.8828125 C3.18035994 58.58418389 -1.55345176 48.3123973 -6.36328125 38.07421875 C-6.69328125 38.07421875 -7.02328125 38.07421875 -7.36328125 38.07421875 Z " fill="#8E8F91" transform="translate(775.36328125,701.92578125)"/>
<path d="M0 0 C2.49948005 2.59641279 3.16461444 4.74660832 3.66015625 8.27734375 C2.99772375 12.83156721 1.63155475 15.34153849 -1.71484375 18.46484375 C-4.09535228 19.86514288 -6.11842013 20.33686825 -8.83984375 20.71484375 C-5.89284782 25.39036614 -2.59717542 29.41920198 1.16015625 33.46484375 C1.94132812 34.32916016 1.94132812 34.32916016 2.73828125 35.2109375 C5.3290602 38.01761469 7.50037886 40.34242723 11.16015625 41.71484375 C11.16015625 42.37484375 11.16015625 43.03484375 11.16015625 43.71484375 C6.24149317 44.61959054 2.05068978 44.87640778 -2.83984375 43.71484375 C-7.05071325 40.46939909 -9.86575374 35.85644648 -12.71484375 31.43481445 C-15.60012409 27.02361653 -17.71660201 24.28027873 -22.83984375 22.71484375 C-22.93690487 28.82969402 -22.61025226 34.64787676 -21.83984375 40.71484375 C-20.18984375 41.04484375 -18.53984375 41.37484375 -16.83984375 41.71484375 C-16.83984375 42.37484375 -16.83984375 43.03484375 -16.83984375 43.71484375 C-23.76984375 43.71484375 -30.69984375 43.71484375 -37.83984375 43.71484375 C-37.83984375 43.05484375 -37.83984375 42.39484375 -37.83984375 41.71484375 C-35.36484375 41.21984375 -35.36484375 41.21984375 -32.83984375 40.71484375 C-31.74575571 26.58938567 -31.6524875 12.85710479 -32.83984375 -1.28515625 C-34.48984375 -1.61515625 -36.13984375 -1.94515625 -37.83984375 -2.28515625 C-37.83984375 -2.94515625 -37.83984375 -3.60515625 -37.83984375 -4.28515625 C-27.11591858 -6.5320739 -9.18815508 -6.41805312 0 0 Z M-22.83984375 -0.28515625 C-22.83984375 5.98484375 -22.83984375 12.25484375 -22.83984375 18.71484375 C-14.84522143 17.49270584 -14.84522143 17.49270584 -7.83984375 13.71484375 C-6.3955352 10.82622666 -6.46295869 8.91836674 -6.83984375 5.71484375 C-8.54157713 2.67629329 -8.54157713 2.67629329 -11.83984375 0.71484375 C-15.56051714 0.00415333 -19.03162184 -0.14750967 -22.83984375 -0.28515625 Z " fill="#3BA4D7" transform="translate(434.83984375,944.28515625)"/>
<path d="M0 0 C4.82411582 -0.67935628 9.19166601 -0.88169877 14 0 C17.33645333 2.58917198 19.41324452 5.73212236 21.73974609 9.22753906 C24.19142052 12.67565149 27.06979187 15.77627153 29.875 18.9375 C30.97864234 20.19479196 32.08031648 21.45381526 33.1796875 22.71484375 C33.65132324 23.25230225 34.12295898 23.78976074 34.60888672 24.34350586 C36.14393336 26.17139134 37.56782959 28.09043946 39 30 C39 21.09 39 12.18 39 3 C37.68 2.34 36.36 1.68 35 1 C35 0.67 35 0.34 35 0 C40.28 0 45.56 0 51 0 C50.67 0.66 50.34 1.32 50 2 C49.01 2.33 48.02 2.66 47 3 C46.96241577 4.35194458 46.96241577 4.35194458 46.92407227 5.73120117 C46.82778454 9.14013609 46.72863973 12.54896492 46.62768555 15.95776367 C46.58490988 17.42094782 46.54320729 18.88416381 46.50268555 20.34741211 C46.2458116 29.59170295 45.81403782 38.78389325 45 48 C40.8936885 46.12941389 38.29134529 43.37677509 35.3125 40.0625 C34.78430664 39.48274414 34.25611328 38.90298828 33.71191406 38.30566406 C29.76285749 33.93613927 25.9895888 29.44216475 22.328125 24.828125 C19.00146809 20.78701829 15.47743478 16.91211413 12 13 C12 22.9 12 32.8 12 43 C13.65 43.66 15.3 44.32 17 45 C17 45.66 17 46.32 17 47 C11.06 47 5.12 47 -1 47 C-1 46.34 -1 45.68 -1 45 C0.65 44.34 2.3 43.68 4 43 C5.42502246 31.77794812 5.33016448 20.47308047 4.75 9.1875 C4.70359375 8.27355469 4.6571875 7.35960937 4.609375 6.41796875 C3.83214133 3.3339454 2.37851383 2.04076487 0 0 Z " fill="#4CA9D7" transform="translate(499,941)"/>
<path d="M0 0 C12.87 0 25.74 0 39 0 C39 3.3 39 6.6 39 10 C35 8 35 8 33 5 C30.97723319 4.49378487 30.97723319 4.49378487 28.6484375 4.48828125 C27.37226562 4.43510742 27.37226562 4.43510742 26.0703125 4.38085938 C25.18085937 4.35830078 24.29140625 4.33574219 23.375 4.3125 C22.02921875 4.26125977 22.02921875 4.26125977 20.65625 4.20898438 C18.43762462 4.12637598 16.2194006 4.05727281 14 4 C14.01160156 4.90363281 14.02320313 5.80726563 14.03515625 6.73828125 C14.04417969 7.91777344 14.05320312 9.09726562 14.0625 10.3125 C14.07410156 11.48425781 14.08570313 12.65601563 14.09765625 13.86328125 C14 17 14 17 13 20 C15.58686253 19.77139354 18.16718692 19.51811208 20.75 19.25 C21.84441406 19.1571875 21.84441406 19.1571875 22.9609375 19.0625 C27.71026313 18.54439175 29.94194099 17.65185688 33 14 C33.66 14 34.32 14 35 14 C35 19.61 35 25.22 35 31 C34.01 30.67 33.02 30.34 32 30 C31.505 28.515 31.505 28.515 31 27 C25.19354298 24.72790812 19.17832727 24.42455052 13 24 C13.33 24.99 13.66 25.98 14 27 C14.07051114 29.73865287 14.09357765 32.45027588 14.0625 35.1875 C14.05798828 35.93708984 14.05347656 36.68667969 14.04882812 37.45898438 C14.03706354 39.30602383 14.01912865 41.15302213 14 43 C16.89724063 42.91275184 19.79150135 42.80584073 22.6875 42.6875 C23.91243164 42.65366211 23.91243164 42.65366211 25.16210938 42.61914062 C32.95665585 42.27201507 36.62754666 39.67945067 42 34 C42.18393122 39.42597111 42.09708587 41.75728532 40 47 C26.47 47 12.94 47 -1 47 C-1 46.34 -1 45.68 -1 45 C-0.35474365 44.78819092 0.2905127 44.57638184 0.95532227 44.3581543 C3.26880164 43.15839078 3.26880164 43.15839078 3.58959961 40.46411133 C3.63093018 39.4098999 3.67226074 38.35568848 3.71484375 37.26953125 C3.7701123 36.09986816 3.82538086 34.93020508 3.88232422 33.72509766 C3.92115723 32.49581543 3.95999023 31.2665332 4 30 C4.0530127 28.81325684 4.10602539 27.62651367 4.16064453 26.40380859 C4.31606094 22.8321545 4.44333375 19.26053386 4.5625 15.6875 C4.62727539 13.84381836 4.62727539 13.84381836 4.69335938 11.96289062 C4.79798194 8.97533514 4.90016327 5.98771857 5 3 C2.525 2.01 2.525 2.01 0 1 C0 0.67 0 0.34 0 0 Z " fill="#41A5D6" transform="translate(776,941)"/>
<path d="M0 0 C6.27 0 12.54 0 19 0 C17.68 1.32 16.36 2.64 15 4 C13.15855973 11.33228033 13.95341812 19.48298433 14.25 27 C14.27602295 27.81283447 14.3020459 28.62566895 14.32885742 29.46313477 C14.57306 34.0799548 15.08271774 37.21996259 18 41 C21.51222442 43.7317301 25.74881252 43.49082611 30 43 C32.91178573 42.37564049 34.36657723 41.63272212 37 40 C39.62895184 32.85701216 39.36758745 25.82511665 39.375 18.3125 C39.41173828 16.33540039 39.41173828 16.33540039 39.44921875 14.31835938 C39.45308594 13.05443359 39.45695312 11.79050781 39.4609375 10.48828125 C39.47326416 8.76411987 39.47326416 8.76411987 39.48583984 7.00512695 C39.20828563 3.42803192 39.20828563 3.42803192 35 0 C39.95 0 44.9 0 50 0 C49.67 0.66 49.34 1.32 49 2 C48.01 2 47.02 2 46 2 C45.35171911 7.04808886 44.92411039 12.01264009 44.7890625 17.1015625 C44.74652344 18.70257812 44.74652344 18.70257812 44.703125 20.3359375 C44.65086026 22.53628298 44.60664425 24.73683377 44.5703125 26.9375 C44.39397175 33.00656094 44.04060297 37.68436155 41 43 C33.90373166 48.73740845 26.84302821 48.60391412 18 48 C13.45542108 46.9343746 9.76918069 44.79480316 7 41 C4.29986939 32.77870681 4.34795335 24.18289577 3.97094727 15.60424805 C3.87952396 13.59364779 3.77009891 11.58389141 3.66015625 9.57421875 C3.60480713 8.38401123 3.54945801 7.19380371 3.49243164 5.9675293 C3.23875466 2.65694117 3.23875466 2.65694117 0 0 Z " fill="#36A2D7" transform="translate(294,941)"/>
<path d="M0 0 C1.25361328 0.00322266 2.50722656 0.00644531 3.79882812 0.00976562 C5.76432617 0.02233398 5.76432617 0.02233398 7.76953125 0.03515625 C9.10481606 0.04017308 10.44010266 0.04473566 11.77539062 0.04882812 C15.04429005 0.06062921 18.31316627 0.07856489 21.58203125 0.09765625 C21.58203125 5.70765625 21.58203125 11.31765625 21.58203125 17.09765625 C19.32269465 14.83831965 17.92811554 13.19667494 16.26953125 10.59765625 C13.82365109 7.14421949 11.66946854 5.48738493 7.58203125 4.09765625 C2.13357264 3.50327895 -1.62002729 4.47236752 -6.41796875 7.09765625 C-11.30485509 11.85246458 -12.49376331 17.33461227 -12.73046875 23.97265625 C-12.57665427 30.27904981 -11.53699471 35.92286645 -7.04296875 40.53515625 C-1.88363497 43.60618826 2.52490092 44.98995448 8.58203125 44.09765625 C11.22433351 43.21953775 13.74115003 42.20053182 16.28515625 41.0703125 C18.38113837 40.18272823 20.3629716 39.58116695 22.58203125 39.09765625 C22.38671875 40.9296875 22.38671875 40.9296875 21.58203125 43.09765625 C19.40234375 44.546875 19.40234375 44.546875 16.70703125 45.78515625 C15.82273437 46.20152344 14.9384375 46.61789062 14.02734375 47.046875 C7.39112097 49.89854262 -0.10615999 50.3107453 -7.09765625 48.34375 C-13.89570434 45.42539602 -18.32043698 42.04964503 -21.56030273 35.35791016 C-22.97359182 31.63339255 -23.09983847 28.11112753 -23.04296875 24.16015625 C-23.03531494 23.37036377 -23.02766113 22.58057129 -23.01977539 21.7668457 C-22.77029884 15.21893141 -21.26978753 10.70582474 -16.41796875 6.09765625 C-11.1261977 1.50922186 -6.96310619 -0.03150727 0 0 Z " fill="#38A2D6" transform="translate(895.41796875,939.90234375)"/>
<path d="M0 0 C12.87 0 25.74 0 39 0 C39 3.3 39 6.6 39 10 C38.01 9.67 37.02 9.34 36 9 C35.505 7.515 35.505 7.515 35 6 C27.67271233 4.33028622 20.4967332 3.5230279 13 3 C13 8.61 13 14.22 13 20 C16.8671875 19.62875 16.8671875 19.62875 20.8125 19.25 C21.62050049 19.18200195 22.42850098 19.11400391 23.26098633 19.04394531 C27.59857089 18.58205781 27.59857089 18.58205781 30.88671875 15.921875 C31.25410156 15.28765625 31.62148437 14.6534375 32 14 C32.66 14 33.32 14 34 14 C34 19.61 34 25.22 34 31 C33.34 31 32.68 31 32 31 C31.75507813 30.36449219 31.51015625 29.72898437 31.2578125 29.07421875 C30.19604845 26.86577727 30.19604845 26.86577727 28.1171875 26.20703125 C27.37726563 26.07683594 26.63734375 25.94664062 25.875 25.8125 C25.15054688 25.67457031 24.42609375 25.53664063 23.6796875 25.39453125 C20.12786046 24.87159462 16.5623934 24.44529917 13 24 C13.66 30.27 14.32 36.54 15 43 C16.65 43.66 18.3 44.32 20 45 C20 45.66 20 46.32 20 47 C13.07 47 6.14 47 -1 47 C-1 46.34 -1 45.68 -1 45 C-0.35474365 44.78819092 0.2905127 44.57638184 0.95532227 44.3581543 C3.26880164 43.15839078 3.26880164 43.15839078 3.58959961 40.46411133 C3.63093018 39.4098999 3.67226074 38.35568848 3.71484375 37.26953125 C3.7701123 36.09986816 3.82538086 34.93020508 3.88232422 33.72509766 C3.92115723 32.49581543 3.95999023 31.2665332 4 30 C4.0530127 28.81325684 4.10602539 27.62651367 4.16064453 26.40380859 C4.31606094 22.8321545 4.44333375 19.26053386 4.5625 15.6875 C4.62727539 13.84381836 4.62727539 13.84381836 4.69335938 11.96289062 C4.79798194 8.97533514 4.90016327 5.98771857 5 3 C2.525 2.01 2.525 2.01 0 1 C0 0.67 0 0.34 0 0 Z " fill="#3BA3D7" transform="translate(202,941)"/>
<path d="M0 0 C0.33 0 0.66 0 1 0 C1.00097681 0.67504934 1.00195362 1.35009867 1.00296003 2.04560405 C1.06125415 42.07004025 1.13506768 82.09442099 1.22898628 122.11879014 C1.24025421 126.92644252 1.2513927 131.73409518 1.26245117 136.54174805 C1.26465486 137.49884997 1.26685854 138.4559519 1.269129 139.44205692 C1.30448453 154.93164791 1.32935851 170.42123885 1.35034702 185.91085521 C1.37212296 201.80908505 1.40519044 217.7072626 1.44870156 233.60544795 C1.47518735 243.41249414 1.49290535 253.2194752 1.49934604 263.02655538 C1.50460932 269.7550748 1.52085785 276.48351232 1.54566566 283.21198783 C1.55964846 287.09177598 1.56886355 290.97141763 1.56500816 294.85123253 C1.56158007 298.4090631 1.57206459 301.96658162 1.59323552 305.52434834 C1.60093852 307.40906304 1.59409048 309.29382027 1.58658296 311.17853576 C1.64780863 318.55984378 2.66895813 324.99010409 5 332 C2 331 2 331 0.85106647 329.30775076 C-2.31654703 320.718454 -1.14443819 309.83299593 -1.12698364 300.78419495 C-1.12854363 299.51958669 -1.13010362 298.25497844 -1.13171089 296.95204872 C-1.13584428 293.48130999 -1.13384098 290.01059913 -1.13072467 286.53986037 C-1.12844629 282.78192759 -1.13196213 279.02399935 -1.13470459 275.2660675 C-1.13913441 267.92179597 -1.13819852 260.57753471 -1.13529195 253.23326278 C-1.13302814 247.26489729 -1.13272962 241.29653467 -1.13381577 235.32816887 C-1.133969 234.47685131 -1.13412223 233.62553376 -1.13428011 232.7484187 C-1.13459985 231.01875703 -1.13492406 229.28909536 -1.1352527 227.55943369 C-1.138099 211.37058234 -1.13483317 195.18173666 -1.12945233 178.99288624 C-1.12497942 165.10536208 -1.12576588 151.21784628 -1.13037109 137.33032227 C-1.13572213 121.18620238 -1.13783033 105.04208745 -1.13475883 88.8979668 C-1.13444029 87.17701813 -1.13412592 85.45606945 -1.13381577 83.73512077 C-1.13366149 82.88845392 -1.13350721 82.04178707 -1.13334826 81.16946365 C-1.13248512 75.20543328 -1.13394151 69.24140606 -1.13629532 63.27737617 C-1.13909913 56.0139271 -1.13834251 48.75048884 -1.13301457 41.487041 C-1.13038631 37.78198877 -1.1293578 34.07695457 -1.13266373 30.37190247 C-1.13619211 26.35689246 -1.1319796 22.34192799 -1.12698364 18.32691956 C-1.12921436 17.15485209 -1.13144509 15.98278462 -1.13374341 14.77519995 C-1.13113566 13.69838491 -1.12852791 12.62156986 -1.12584114 11.51212406 C-1.12567879 10.58581843 -1.12551644 9.65951281 -1.12534916 8.70513731 C-0.9880276 5.74162584 -0.54018945 2.91478782 0 0 Z " fill="#5FAED9" transform="translate(296,219)"/>
<path d="M0 0 C14.19 0 28.38 0 43 0 C43 3.96 43 7.92 43 12 C42.01 11.67 41.02 11.34 40 11 C39.690625 10.030625 39.38125 9.06125 39.0625 8.0625 C37.32356032 4.75141393 37.32356032 4.75141393 34.17358398 4.26342773 C32.53885132 4.03828491 32.53885132 4.03828491 30.87109375 3.80859375 C29.77595459 3.65060303 28.68081543 3.4926123 27.55249023 3.32983398 C26.71016846 3.22098877 25.86784668 3.11214355 25 3 C25.1409147 7.41683763 25.28865159 11.83342318 25.4375 16.25 C25.47681641 17.48492188 25.51613281 18.71984375 25.55664062 19.9921875 C25.81989971 27.68745314 26.27588172 35.33411959 27 43 C28.65 43.66 30.3 44.32 32 45 C32 45.66 32 46.32 32 47 C25.07 47 18.14 47 11 47 C11.33 46.01 11.66 45.02 12 44 C13.65 44 15.3 44 17 44 C17 30.47 17 16.94 17 3 C5.4774198 3.50930984 5.4774198 3.50930984 2.25 8.625 C1.63125 10.295625 1.63125 10.295625 1 12 C0.34 12 -0.32 12 -1 12 C-1.02698189 10.37509046 -1.04638757 8.75005367 -1.0625 7.125 C-1.07410156 6.22007812 -1.08570313 5.31515625 -1.09765625 4.3828125 C-1 2 -1 2 0 0 Z " fill="#31A0D6" transform="translate(679,941)"/>
<path d="M0 0 C7.59 0 15.18 0 23 0 C23 0.66 23 1.32 23 2 C21.35 2.66 19.7 3.32 18 4 C17.97494385 5.06436279 17.9498877 6.12872559 17.92407227 7.2253418 C17.8296833 11.18574429 17.72954025 15.14598423 17.62768555 19.10620117 C17.58445555 20.81807647 17.54277235 22.52999157 17.50268555 24.24194336 C17.44469286 26.70699034 17.38108303 29.17183918 17.31640625 31.63671875 C17.29969376 32.39836838 17.28298126 33.16001801 17.26576233 33.94474792 C17.16082086 37.7349605 16.89607373 41.3104722 16 45 C19.465 45.495 19.465 45.495 23 46 C23 46.66 23 47.32 23 48 C15.41 48 7.82 48 0 48 C0 47.34 0 46.68 0 46 C1.98 45.01 3.96 44.02 6 43 C7.17359097 23.47719656 7.17359097 23.47719656 6 4 C4.02 3.34 2.04 2.68 0 2 C0 1.34 0 0.68 0 0 Z " fill="#3AA3D5" transform="translate(603,940)"/>
<path d="M0 0 C4.95 0 9.9 0 15 0 C14.67 0.66 14.34 1.32 14 2 C13.01 2 12.02 2 11 2 C10.35171911 7.04808886 9.92411039 12.01264009 9.7890625 17.1015625 C9.74652344 18.70257812 9.74652344 18.70257812 9.703125 20.3359375 C9.65086026 22.53628298 9.60664425 24.73683377 9.5703125 26.9375 C9.39397233 33.00654087 9.04302057 37.68553042 6 43 C1.07692308 47 1.07692308 47 -3 47 C-3.33 46.34 -3.66 45.68 -4 45 C-4.65226562 45.04640625 -5.30453125 45.0928125 -5.9765625 45.140625 C-12.07954686 45.39266565 -15.2968115 44.96057979 -20 41 C-19.67 40.34 -19.34 39.68 -19 39 C-18.175 39.66 -17.35 40.32 -16.5 41 C-12.79835178 43.44744271 -9.32082727 43.66602347 -5 43 C-2.09304803 42.36285984 -0.63278293 41.63232542 2 40 C4.62895184 32.85701216 4.36758745 25.82511665 4.375 18.3125 C4.39949219 16.99443359 4.42398437 15.67636719 4.44921875 14.31835938 C4.45308594 13.05443359 4.45695312 11.79050781 4.4609375 10.48828125 C4.47326416 8.76411987 4.47326416 8.76411987 4.48583984 7.00512695 C4.20828563 3.42803192 4.20828563 3.42803192 0 0 Z " fill="#51AAD7" transform="translate(329,941)"/>
<path d="M0 0 C1.01096207 -0.00256327 1.01096207 -0.00256327 2.04234761 -0.00517833 C4.29333025 -0.00846402 6.54401263 0.00251504 8.79496765 0.01345825 C10.41144809 0.01402257 12.02792904 0.01370541 13.64440918 0.01257324 C18.02831578 0.01199952 22.41211289 0.02375707 26.79599404 0.03772116 C31.37907624 0.05022517 35.96216095 0.05139876 40.54525757 0.05377197 C49.22202724 0.0599877 57.89874651 0.0763998 66.57549399 0.09647095 C76.45449592 0.11882704 86.33350026 0.12982266 96.2125212 0.13986182 C116.53259333 0.16076593 136.85262009 0.19594374 157.1726532 0.24050903 C157.5026532 0.90050903 157.8326532 1.56050903 158.1726532 2.24050903 C104.0526532 1.91050903 49.9326532 1.58050903 -5.8273468 1.24050903 C-5.8273468 1.90050903 -5.8273468 2.56050903 -5.8273468 3.24050903 C-7.2504718 3.61175903 -7.2504718 3.61175903 -8.7023468 3.99050903 C-11.81842373 4.91973891 -11.81842373 4.91973891 -13.0773468 6.92800903 C-14.07751904 10.01187342 -14.98453224 13.11005496 -15.8273468 16.24050903 C-16.1573468 16.24050903 -16.4873468 16.24050903 -16.8273468 16.24050903 C-17.49698966 8.47265189 -17.49698966 8.47265189 -14.6398468 4.86550903 C-9.99875596 0.53382425 -6.24883699 -0.00956211 0 0 Z " fill="#70B1D8" transform="translate(312.8273468017578,198.75949096679688)"/>
<path d="M0 0 C16.2288714 -0.07006545 32.45769377 -0.12297603 48.68667984 -0.15543652 C56.22199813 -0.17090875 63.75722248 -0.192005 71.29248047 -0.22631836 C77.85982982 -0.2562099 84.42711114 -0.27557241 90.99452662 -0.28226548 C94.47229989 -0.28617819 97.94987851 -0.29538076 101.42758942 -0.31719017 C105.30885989 -0.3413332 109.18993952 -0.34197014 113.07128906 -0.34057617 C114.22575027 -0.351362 115.38021149 -0.36214783 116.56965637 -0.3732605 C117.62692429 -0.36913651 118.6841922 -0.36501251 119.77349854 -0.36076355 C121.15065725 -0.36491162 121.15065725 -0.36491162 122.55563736 -0.36914349 C125.4882734 0.07373822 126.86577006 0.96924215 129 3 C129.45410156 5.26831055 129.45410156 5.26831055 129.390625 7.88671875 C129.37773438 8.82451172 129.36484375 9.76230469 129.3515625 10.72851562 C129.30128906 12.19321289 129.30128906 12.19321289 129.25 13.6875 C129.23195313 14.67556641 129.21390625 15.66363281 129.1953125 16.68164062 C129.14815447 19.12206842 129.08236042 21.56054769 129 24 C128.01 24.33 127.02 24.66 126 25 C126.33 17.74 126.66 10.48 127 3 C123.64034876 2.16008719 121.24650543 1.86604647 117.84942627 1.84178162 C116.80898666 1.8319928 115.76854706 1.82220398 114.69657898 1.81211853 C113.56081924 1.80636307 112.42505951 1.8006076 111.25488281 1.79467773 C110.05460953 1.78477814 108.85433624 1.77487854 107.61769104 1.76467896 C104.33085513 1.738515 101.04402423 1.71664311 97.75714588 1.69667697 C94.3204724 1.67478685 90.88384272 1.64741299 87.44720459 1.62062073 C80.94144859 1.57073472 74.43566822 1.52578074 67.92986465 1.48259836 C60.52238698 1.43319099 53.11495325 1.37828586 45.7075181 1.32291877 C30.47171936 1.20916155 15.23588018 1.10230892 0 1 C0 0.67 0 0.34 0 0 Z " fill="#4FA5D6" transform="translate(646,199)"/>
<path d="M0 0 C1.60908234 -0.00412399 1.60908234 -0.00412399 3.25067139 -0.0083313 C5.01580833 0.00245453 5.01580833 0.00245453 6.81660461 0.01345825 C8.67531693 0.01302017 8.67531693 0.01302017 10.57157898 0.01257324 C13.97014832 0.01372877 17.36847541 0.02376691 20.76700187 0.03772116 C24.31842573 0.05021419 27.86985272 0.05139789 31.42129517 0.05377197 C38.14671863 0.05999095 44.87207716 0.07640739 51.59747201 0.09647095 C59.25397685 0.11881699 66.91048477 0.12982012 74.5670141 0.13986182 C90.31732213 0.16077327 106.06756535 0.19595733 121.81782532 0.24050903 C121.81782532 0.57050903 121.81782532 0.90050903 121.81782532 1.24050903 C120.85564858 1.24409156 120.85564858 1.24409156 119.87403393 1.24774647 C104.27568257 1.30684825 88.67751056 1.38236708 73.07933331 1.47622395 C65.53620486 1.52121511 57.99312399 1.560622 50.4499054 1.58694458 C43.87625063 1.6098979 37.30274597 1.64326577 30.7292102 1.68921059 C27.24761931 1.71317911 23.7661774 1.73188396 20.28450584 1.73812294 C16.40050792 1.7452778 12.51688399 1.77568112 8.63301086 1.80813599 C7.47495438 1.8067009 6.31689789 1.80526581 5.12374878 1.80378723 C4.06785553 1.81632538 3.01196228 1.82886353 1.92407227 1.84178162 C1.00504466 1.84639058 0.08601706 1.85099955 -0.86085987 1.85574818 C-3.63149759 2.31498487 -4.50361866 3.02982827 -6.18217468 5.24050903 C-6.89665111 7.34383794 -6.89665111 7.34383794 -7.18217468 9.24050903 C-7.84217468 9.24050903 -8.50217468 9.24050903 -9.18217468 9.24050903 C-8.86967468 5.86550903 -8.86967468 5.86550903 -8.18217468 2.24050903 C-4.86203756 0.02708429 -3.86227524 -0.00762542 0 0 Z " fill="#23A1DF" transform="translate(647.1821746826172,199.75949096679688)"/>
<path d="M0 0 C1.05426178 -0.00043808 1.05426178 -0.00043808 2.12982178 -0.00088501 C4.44572428 0.00050486 6.76130236 0.01604965 9.07714844 0.03173828 C10.6856875 0.03546964 12.29422884 0.03831603 13.902771 0.04031372 C18.13112695 0.04794055 22.35934494 0.06758084 26.58764648 0.08972168 C30.90444065 0.1102006 35.22125717 0.11931981 39.53808594 0.12939453 C48.00429499 0.15082766 56.47039204 0.1849521 64.93652344 0.22705078 C64.93652344 0.55705078 64.93652344 0.88705078 64.93652344 1.22705078 C63.94079063 1.24251198 63.94079063 1.24251198 62.92494202 1.25828552 C55.93141255 1.36760082 48.93798023 1.48207459 41.94458008 1.59936523 C39.34466613 1.64231908 36.74473107 1.68401627 34.14477539 1.72436523 C20.0472727 1.94400319 6.00348187 2.24869423 -8.06347656 3.22705078 C-8.39347656 11.47705078 -8.72347656 19.72705078 -9.06347656 28.22705078 C-9.72347656 28.22705078 -10.38347656 28.22705078 -11.06347656 28.22705078 C-11.06347656 19.64705078 -11.06347656 11.06705078 -11.06347656 2.22705078 C-6.75372316 0.07217408 -4.73615354 -0.01655998 0 0 Z " fill="#98C4DD" transform="translate(526.0634765625,402.77294921875)"/>
<path d="M0 0 C4.29 0 8.58 0 13 0 C13 5.61 13 11.22 13 17 C10.7406634 14.7406634 9.34608429 13.09901869 7.6875 10.5 C5.18081613 7.00247354 3.21136601 5.32580041 -1 4 C-4.68222502 3.77621837 -8.3167213 3.82304533 -12 4 C-10 2 -10 2 -7.6171875 1.8046875 C-6.71226562 1.82789063 -5.80734375 1.85109375 -4.875 1.875 C-3.50988281 1.90207031 -3.50988281 1.90207031 -2.1171875 1.9296875 C-1.41851563 1.95289063 -0.71984375 1.97609375 0 2 C0 1.34 0 0.68 0 0 Z " fill="#4FA9D5" transform="translate(904,940)"/>
<path d="M0 0 C0.79198288 0.0028299 1.58396576 0.00565979 2.39994812 0.00857544 C4.91652874 0.01972387 7.43274664 0.04481828 9.94921875 0.0703125 C11.66080213 0.08034921 13.37239112 0.08947386 15.08398438 0.09765625 C19.26836781 0.11964569 23.45248189 0.15413842 27.63671875 0.1953125 C27.63671875 0.5253125 27.63671875 0.8553125 27.63671875 1.1953125 C16.08671875 1.1953125 4.53671875 1.1953125 -7.36328125 1.1953125 C-7.36328125 1.8553125 -7.36328125 2.5153125 -7.36328125 3.1953125 C-8.78640625 3.5665625 -8.78640625 3.5665625 -10.23828125 3.9453125 C-13.35435818 4.87454238 -13.35435818 4.87454238 -14.61328125 6.8828125 C-15.61345348 9.96667689 -16.52046669 13.06485843 -17.36328125 16.1953125 C-17.69328125 16.1953125 -18.02328125 16.1953125 -18.36328125 16.1953125 C-19.03292411 8.42745536 -19.03292411 8.42745536 -16.17578125 4.8203125 C-11.15575919 0.13495857 -6.65684508 -0.09021964 0 0 Z " fill="#75B5DB" transform="translate(314.36328125,198.8046875)"/>
<path d="M0 0 C0.33 0 0.66 0 1 0 C1.02693575 2.12493141 1.04636628 4.24995912 1.0625 6.375 C1.07410156 7.55835938 1.08570313 8.74171875 1.09765625 9.9609375 C1 13 1 13 0 15 C1.58323688 15.027193 3.16661062 15.04648306 4.75 15.0625 C5.63171875 15.07410156 6.5134375 15.08570313 7.421875 15.09765625 C9.9624037 15.09271615 9.9624037 15.09271615 12.203125 14.43359375 C14 14 14 14 16 15 C16 15.66 16 16.32 16 17 C8.41 17 0.82 17 -7 17 C-7 16.34 -7 15.68 -7 15 C-6.030625 14.7525 -5.06125 14.505 -4.0625 14.25 C-0.73936886 12.32917374 -0.73936886 12.32917374 -0.37890625 9.12890625 C-0.14531578 6.0778553 -0.00948705 3.05957276 0 0 Z " fill="#79B6DB" transform="translate(610,971)"/>
<path d="M0 0 C0.66 0 1.32 0 2 0 C2.33 11.88 2.66 23.76 3 36 C3.66 36.33 4.32 36.66 5 37 C3.35 37 1.7 37 0 37 C0 24.79 0 12.58 0 0 Z " fill="#97C6E1" transform="translate(515,445)"/>
<path d="M0 0 C0.66 0 1.32 0 2 0 C2 6.93 2 13.86 2 21 C1.01 21.33 0.02 21.66 -1 22 C-0.67 14.74 -0.34 7.48 0 0 Z " fill="#3DA7DC" transform="translate(773,202)"/>
<path d="M0 0 C0.66 0 1.32 0 2 0 C2.12117188 1.01320313 2.24234375 2.02640625 2.3671875 3.0703125 C2.53613783 4.4219151 2.70542669 5.77347542 2.875 7.125 C2.95363281 7.79015625 3.03226562 8.4553125 3.11328125 9.140625 C3.64388026 13.30378644 4.54186554 17.06671292 6 21 C3 20 3 20 1.8515625 18.453125 C0.6323922 14.94101973 0.53107562 11.4307834 0.375 7.75 C0.33632813 7.00492188 0.29765625 6.25984375 0.2578125 5.4921875 C0.16394892 3.6618476 0.08090282 1.83095857 0 0 Z " fill="#53ADDC" transform="translate(295,530)"/>
<path d="M0 0 C0.886875 0.12375 1.77375 0.2475 2.6875 0.375 C-1.0625 3.375 -1.0625 3.375 -3.3125 3.375 C-5.27551592 6.88038557 -6.27152388 10.50851728 -7.3125 14.375 C-7.6425 14.375 -7.9725 14.375 -8.3125 14.375 C-8.98214286 6.60714286 -8.98214286 6.60714286 -6.1875 2.875 C-3.3125 0.375 -3.3125 0.375 0 0 Z " fill="#4AABDB" transform="translate(304.3125,200.625)"/>
<path d="M0 0 C1.98 0.66 3.96 1.32 6 2 C6 2.66 6 3.32 6 4 C-0.93 4 -7.86 4 -15 4 C-14.67 3.01 -14.34 2.02 -14 1 C-13.44828125 1.16371094 -12.8965625 1.32742188 -12.328125 1.49609375 C-9.73385993 2.05760414 -7.40164589 2.09739008 -4.75 2.0625 C-3.41195312 2.04896484 -3.41195312 2.04896484 -2.046875 2.03515625 C-1.37140625 2.02355469 -0.6959375 2.01195312 0 2 C0 1.34 0 0.68 0 0 Z " fill="#6AB1DA" transform="translate(705,984)"/>
<path d="M0 0 C0.83144531 0.05220703 1.66289062 0.10441406 2.51953125 0.15820312 C4.55508108 0.28688731 6.59010441 0.42385407 8.625 0.5625 C8.625 0.8925 8.625 1.2225 8.625 1.5625 C2.025 1.5625 -4.575 1.5625 -11.375 1.5625 C-11.375 2.2225 -11.375 2.8825 -11.375 3.5625 C-12.695 3.2325 -14.015 2.9025 -15.375 2.5625 C-15.375 1.9025 -15.375 1.2425 -15.375 0.5625 C-10.12418443 -0.58452282 -5.30983462 -0.36838566 0 0 Z " fill="#9DC4DB" transform="translate(412.375,939.4375)"/>
<path d="M0 0 C7.59 0 15.18 0 23 0 C22.67 0.66 22.34 1.32 22 2 C20.89140625 1.98839844 19.7828125 1.97679687 18.640625 1.96484375 C17.17708502 1.95546208 15.71354322 1.94636229 14.25 1.9375 C13.52039063 1.92912109 12.79078125 1.92074219 12.0390625 1.91210938 C7.9197147 1.86856253 7.9197147 1.86856253 3.88183594 2.56860352 C2 3 2 3 0 2 C0 1.34 0 0.68 0 0 Z " fill="#87B7D9" transform="translate(603,940)"/>
<path d="M0 0 C-0.1875 1.875 -0.1875 1.875 -1 4 C-3.5625 5.25 -3.5625 5.25 -6 6 C-6 5.34 -6 4.68 -6 4 C-6.66 3.67 -7.32 3.34 -8 3 C-3.375 0 -3.375 0 0 0 Z " fill="#6BB3D7" transform="translate(918,979)"/>
<path d="M0 0 C0.66 0.33 1.32 0.66 2 1 C-1.3 4.3 -4.6 7.6 -8 11 C-8 7.0234755 -6.61988497 5.9109833 -4 3 C-1.75 1.1875 -1.75 1.1875 0 0 Z " fill="#55A7D1" transform="translate(884,942)"/>
<path d="M0 0 C0.33 0 0.66 0 1 0 C1 5.61 1 11.22 1 17 C0.01 16.67 -0.98 16.34 -2 16 C-1.67 15.01 -1.34 14.02 -1 13 C-0.77548542 10.77425665 -0.59217122 8.54418481 -0.4375 6.3125 C-0.35371094 5.13300781 -0.26992188 3.95351563 -0.18359375 2.73828125 C-0.12300781 1.83464844 -0.06242188 0.93101562 0 0 Z " fill="#70B5D5" transform="translate(810,955)"/>
<path d="M0 0 C0.66 0.33 1.32 0.66 2 1 C-2.625 6.875 -2.625 6.875 -6 8 C-4.73058503 4.08597051 -3.48832306 2.20927127 0 0 Z " fill="#64B3DF" transform="translate(498,377)"/>
<path d="M0 0 C0.66 0.66 1.32 1.32 2 2 C4.66242821 2.46290221 4.66242821 2.46290221 7.625 2.625 C9.12933594 2.73714844 9.12933594 2.73714844 10.6640625 2.8515625 C11.43492187 2.90054687 12.20578125 2.94953125 13 3 C13 3.33 13 3.66 13 4 C7.72 4 2.44 4 -3 4 C-2.01 2.68 -1.02 1.36 0 0 Z " fill="#2093CC" transform="translate(685,334)"/>
<path d="M0 0 C0.9075 0.226875 1.815 0.45375 2.75 0.6875 C2.75 1.3475 2.75 2.0075 2.75 2.6875 C-0.55 2.6875 -3.85 2.6875 -7.25 2.6875 C-3.25 -0.3125 -3.25 -0.3125 0 0 Z " fill="#6BB0D4" transform="translate(623.25,985.3125)"/>
</svg>
